<?xml version="1.0" encoding="UTF-8" standalone="no"?>
<!-- Uploaded to: SVG Repo, www.svgrepo.com, Generator: SVG Repo Mixer Tools -->

<svg
   width="800px"
   height="800px"
   viewBox="0 0 24 24"
   fill="none"
   version="1.1"
   id="svg3"
   sodipodi:docname="code.svg"
   inkscape:version="1.3 (0e150ed6c4, 2023-07-21)"
   xmlns:inkscape="http://www.inkscape.org/namespaces/inkscape"
   xmlns:sodipodi="http://sodipodi.sourceforge.net/DTD/sodipodi-0.dtd"
   xmlns="http://www.w3.org/2000/svg"
   xmlns:svg="http://www.w3.org/2000/svg">
  <defs
     id="defs3" />
  <sodipodi:namedview
     id="namedview3"
     pagecolor="#ffffff"
     bordercolor="#000000"
     borderopacity="0.25"
     inkscape:showpageshadow="2"
     inkscape:pageopacity="0.0"
     inkscape:pagecheckerboard="0"
     inkscape:deskcolor="#d1d1d1"
     inkscape:zoom="0.97875"
     inkscape:cx="398.46743"
     inkscape:cy="401.53257"
     inkscape:window-width="1350"
     inkscape:window-height="1032"
     inkscape:window-x="2033"
     inkscape:window-y="18"
     inkscape:window-maximized="0"
     inkscape:current-layer="svg3" />
  <path
     d="M 15.3929,4.05365 14.8912,4.61112 Z M 19.3517,7.61654 18.85,8.17402 Z m 2.3023,2.53756 -0.6851,0.3051 v 0 z M 3.17157,20.8284 3.7019,20.2981 v 0 z m 17.65683,0 -0.5303,-0.5303 v 0 z M 14,21.25 h -4 v 1.5 h 4 z M 2.75,14 v -4 h -1.5 v 4 z m 18.5,-0.4371 V 14 h 1.5 V 13.5629 Z M 14.8912,4.61112 18.85,8.17402 19.8534,7.05907 15.8947,3.49618 Z M 22.75,13.5629 c 0,-1.6884 0.0151,-2.7574 -0.4109,-3.71393 l -1.3702,0.61023 c 0.266,0.5973 0.2811,1.2828 0.2811,3.1037 z m -3.9,-5.38888 c 1.3534,1.21808 1.8529,1.68797 2.1189,2.28518 L 22.3391,9.84897 C 21.9131,8.89241 21.1084,8.18853 19.8534,7.05907 Z M 10.0298,2.75 c 1.5818,0 2.1787,0.01158 2.7107,0.21573 L 13.2779,1.5653 C 12.4261,1.23842 11.498,1.25 10.0298,1.25 Z m 5.8649,0.74618 C 14.8087,2.51878 14.1297,1.89214 13.2779,1.5653 l -0.5374,1.40043 c 0.5322,0.2042 0.981,0.59263 2.1507,1.64539 z M 10,21.25 C 8.09318,21.25 6.73851,21.2484 5.71085,21.1102 4.70476,20.975 4.12511,20.7213 3.7019,20.2981 l -1.06066,1.0607 c 0.74837,0.7483 1.69731,1.0804 2.86974,1.2381 C 6.66182,22.7516 8.13558,22.75 10,22.75 Z M 1.25,14 c 0,1.8644 -0.00159,3.3382 0.15313,4.489 0.15763,1.1724 0.48975,2.1214 1.23811,2.8698 L 3.7019,20.2981 C 3.27869,19.8749 3.02502,19.2952 2.88976,18.2892 2.75159,17.2615 2.75,15.9068 2.75,14 Z M 14,22.75 c 1.8644,0 3.3382,0.0016 4.489,-0.1531 1.1724,-0.1577 2.1214,-0.4898 2.8698,-1.2381 L 20.2981,20.2981 C 19.8749,20.7213 19.2952,20.975 18.2892,21.1102 17.2615,21.2484 15.9068,21.25 14,21.25 Z M 21.25,14 c 0,1.9068 -0.0016,3.2615 -0.1398,4.2892 -0.1352,1.006 -0.3889,1.5857 -0.8121,2.0089 l 1.0607,1.0607 C 22.1071,20.6104 22.4392,19.6614 22.5969,18.489 22.7516,17.3382 22.75,15.8644 22.75,14 Z M 2.75,10 C 2.75,8.09318 2.75159,6.73851 2.88976,5.71085 3.02502,4.70476 3.27869,4.12511 3.7019,3.7019 L 2.64124,2.64124 C 1.89288,3.38961 1.56076,4.33855 1.40313,5.51098 1.24841,6.66182 1.25,8.13558 1.25,10 Z M 10.0298,1.25 C 8.15538,1.25 6.67442,1.24842 5.51887,1.40307 4.34232,1.56054 3.39019,1.8923 2.64124,2.64124 L 3.7019,3.7019 C 4.12453,3.27928 4.70596,3.02525 5.71785,2.88982 6.75075,2.75158 8.11311,2.75 10.0298,2.75 Z"
     fill="#1C274C"
     id="path1"
     style="fill:#29891a;fill-opacity:1;stroke-width:0.99999;stroke-dasharray:none" />
  <path
     d="M 13,2.5 V 5 c 0,2.35702 0,3.53553 0.7322,4.26777 C 14.4645,10 15.643,10 18,10 h 4"
     stroke="#1C274C"
     stroke-width="1.5"
     id="path2"
     style="stroke:#29891a;stroke-width:0.99999;stroke-dasharray:none;stroke-opacity:1" />
  <path
     d="m 7,14 -1,1 1,1 m 4.5,0 1,1 -1,1 M 10,14 8.5,18"
     stroke="#1C274C"
     stroke-width="1.5"
     stroke-linecap="round"
     stroke-linejoin="round"
     id="path3"
     style="stroke:#29891a;stroke-width:0.99999;stroke-dasharray:none;stroke-opacity:1" />
</svg>
