<?xml version="1.0" encoding="UTF-8" standalone="no"?>
<!-- Uploaded to: SVG Repo, www.svgrepo.com, Generator: SVG Repo Mixer Tools -->

<svg
   fill="#000000"
   width="800px"
   height="800px"
   viewBox="0 0 24 24"
   role="img"
   version="1.1"
   id="svg1"
   sodipodi:docname="crm.svg"
   inkscape:version="1.3 (0e150ed6c4, 2023-07-21)"
   xmlns:inkscape="http://www.inkscape.org/namespaces/inkscape"
   xmlns:sodipodi="http://sodipodi.sourceforge.net/DTD/sodipodi-0.dtd"
   xmlns="http://www.w3.org/2000/svg"
   xmlns:svg="http://www.w3.org/2000/svg">
  <defs
     id="defs1" />
  <sodipodi:namedview
     id="namedview1"
     pagecolor="#ffffff"
     bordercolor="#000000"
     borderopacity="0.25"
     inkscape:showpageshadow="2"
     inkscape:pageopacity="0.0"
     inkscape:pagecheckerboard="0"
     inkscape:deskcolor="#d1d1d1"
     inkscape:zoom="0.97875"
     inkscape:cx="398.97829"
     inkscape:cy="399.48914"
     inkscape:window-width="1350"
     inkscape:window-height="1032"
     inkscape:window-x="1846"
     inkscape:window-y="6"
     inkscape:window-maximized="0"
     inkscape:current-layer="svg1" />
  <path
     d="M18.164 7.93V5.084a2.198 2.198 0 0 0 1.267-1.978v-.067A2.2 2.2 0 0 0 17.238.845h-.067a2.2 2.2 0 0 0-2.193 2.193v.067a2.196 2.196 0 0 0 1.252 1.973l.013.006v2.852a6.22 6.22 0 0 0-2.969 1.31l.012-.01-7.828-6.095A2.497 2.497 0 1 0 4.3 4.656l-.012.006 7.697 5.991a6.176 6.176 0 0 0-1.038 3.446 6.22 6.22 0 0 0 1.147 3.607l-.013-.02-2.342 2.343a1.968 1.968 0 0 0-.58-.095h-.002a2.033 2.033 0 1 0 2.033 2.033 1.978 1.978 0 0 0-.1-.595l.005.014 2.317-2.317a6.247 6.247 0 1 0 4.782-11.134l-.036-.005zm-.964 9.378a3.206 3.206 0 1 1 3.215-3.207v.002a3.206 3.206 0 0 1-3.207 3.207z"
     id="path1"
     style="fill:#29891a;fill-opacity:1" />
</svg>
