<?xml version="1.0" encoding="UTF-8" standalone="yes"?>
<!DOCTYPE svg PUBLIC "-//W3C//DTD SVG 1.1//EN" "http://www.w3.org/Graphics/SVG/1.1/DTD/svg11.dtd">

<svg width="500" height="500" viewBox="0 0 500 500" xmlns="http://www.w3.org/2000/svg" xmlns:xlink="http://www.w3.org/1999/xlink" version="1.1" baseProfile="full">
    <defs>
        <linearGradient id="105553153631296105553178739584" x1="71.386375%" x2="28.613621%" y1="94.403046%" y2="-10.894273%">
            <stop offset="0%" style="stop-color:#8ec00f;stop-opacity:1.000000"></stop>
            <stop offset="52%" style="stop-color:#548f0a;stop-opacity:1.000000"></stop>
            <stop offset="100%" style="stop-color:#29891a;stop-opacity:1.000000"></stop>
        </linearGradient>
        <linearGradient id="105553153631296105553179475040" x1="35.233841%" x2="-61.581146%" y1="188.124207%" y2="9.494835%">
            <stop offset="0%" style="stop-color:#8ec00f;stop-opacity:1.000000"></stop>
            <stop offset="52%" style="stop-color:#548f0a;stop-opacity:1.000000"></stop>
            <stop offset="100%" style="stop-color:#29891a;stop-opacity:1.000000"></stop>
        </linearGradient>
    </defs>
    <g transform="scale(1,-1) translate(0,-500)">
        <path d="M 1.500000 236.187500 C 1.500000 239.876643 2.654218 247.164089 3.794226 250.672672 C 4.934234 254.181255 8.283905 260.755355 10.452328 263.739934 C 12.620752 266.724513 17.837987 271.941748 20.822566 274.110172 C 23.807145 276.278595 30.381245 279.628266 33.889828 280.768274 C 37.398411 281.908282 44.685857 283.062500 48.375000 283.062500 L 329.625000 283.062500 C 333.314143 283.062500 340.601589 281.908282 344.110172 280.768274 C 347.618755 279.628266 354.192855 276.278595 357.177434 274.110172 C 360.162013 271.941748 365.379248 266.724513 367.547672 263.739934 C 369.716095 260.755355 373.065766 254.181255 374.205774 250.672672 C 375.345782 247.164089 376.500000 239.876643 376.500000 236.187500 L 376.500000 130.718750 C 376.500000 129.796464 376.211445 127.974603 375.926444 127.097457 C 375.641442 126.220311 374.804024 124.576786 374.261918 123.830642 C 373.719812 123.084497 372.415503 121.780188 371.669358 121.238082 C 370.923214 120.695976 369.279689 119.858558 368.402543 119.573556 C 367.525397 119.288555 365.703536 119.000000 364.781250 119.000000 C 363.858964 119.000000 362.037103 119.288555 361.159957 119.573556 C 360.282811 119.858558 358.639286 120.695976 357.893142 121.238082 C 357.146997 121.780188 355.842688 123.084497 355.300582 123.830642 C 354.758476 124.576786 353.921058 126.220311 353.636056 127.097457 C 353.351055 127.974603 353.062500 129.796464 353.062500 130.718750 L 353.062500 203.773440 L 189.000000 105.335944 L 157.921876 123.968757 L 25.734379 42.640632 C 26.130925 41.155665 27.305086 38.314741 28.072645 36.983114 C 28.840204 35.651488 30.709985 33.211524 31.796194 32.124083 C 32.882402 31.036642 35.320244 29.164096 36.650999 28.395027 C 37.981755 27.625959 40.821345 26.448577 42.305862 26.050348 C 43.790378 25.652118 46.837998 25.250223 48.375000 25.250000 L 177.281250 25.250000 C 178.203536 25.250000 180.025397 24.961445 180.902543 24.676444 C 181.779689 24.391442 183.423214 23.554024 184.169358 23.011918 C 184.915503 22.469812 186.219812 21.165503 186.761918 20.419358 C 187.304024 19.673214 188.141442 18.029689 188.426444 17.152543 C 188.711445 16.275397 189.000000 14.453536 189.000000 13.531250 C 189.000000 12.608964 188.711445 10.787103 188.426444 9.909957 C 188.141442 9.032811 187.304024 7.389286 186.761918 6.643142 C 186.219812 5.896997 184.915503 4.592688 184.169358 4.050582 C 183.423214 3.508476 181.779689 2.671058 180.902543 2.386056 C 180.025397 2.101055 178.203536 1.812500 177.281250 1.812500 L 48.375000 1.812500 C 44.697619 1.812454 37.432820 2.959278 33.934277 4.092118 C 30.435734 5.224959 23.877563 8.554060 20.898166 10.709593 C 17.918769 12.865127 12.705149 18.052678 10.534709 21.021233 C 8.364268 23.989788 5.002336 30.531189 3.851974 34.024010 C 2.701611 37.516830 1.518387 44.775790 1.500000 48.453125 Z M 24.937500 69.664062 L 135.281254 137.562501 L 24.937500 203.773440 Z M 24.937500 236.187500 L 24.937500 231.101563 L 189.000000 132.664067 L 353.062500 231.101563 L 353.062500 236.187500 C 353.062500 238.032071 352.485391 241.675794 351.915387 243.430086 C 351.345383 245.184377 349.670548 248.471427 348.586336 249.963717 C 347.502124 251.456006 344.893506 254.064624 343.401217 255.148836 C 341.908927 256.233048 338.621877 257.907883 336.867586 258.477887 C 335.113294 259.047891 331.469571 259.625000 329.625000 259.625000 L 48.375000 259.625000 C 46.530429 259.625000 42.886706 259.047891 41.132414 258.477887 C 39.378123 257.907883 36.091073 256.233048 34.598783 255.148836 C 33.106494 254.064624 30.497876 251.456006 29.413664 249.963717 C 28.329452 248.471427 26.654617 245.184377 26.084613 243.430086 C 25.514609 241.675794 24.937500 238.032071 24.937500 236.187500 Z" transform="scale(1.000000,1.000000) translate(61.000000,131.000000)" fill="url(#105553153631296105553178739584)" opacity="1.000000"></path>
        <path d="M 83.468750 1.937500 C 89.924749 1.937500 102.677780 3.957382 108.817800 5.952395 C 114.957821 7.947409 126.462496 13.809333 131.685509 17.604075 C 136.908522 21.398816 146.038684 30.528978 149.833425 35.751991 C 153.628167 40.975004 159.490091 52.479679 161.485105 58.619700 C 163.480118 64.759720 165.500000 77.512751 165.500000 83.968750 C 165.500000 90.424749 163.480118 103.177780 161.485105 109.317800 C 159.490091 115.457821 153.628167 126.962496 149.833425 132.185509 C 146.038684 137.408522 136.908522 146.538684 131.685509 150.333425 C 126.462496 154.128167 114.957821 159.990091 108.817800 161.985105 C 102.677780 163.980118 89.924749 166.000000 83.468750 166.000000 C 77.012751 166.000000 64.259720 163.980118 58.119700 161.985105 C 51.979679 159.990091 40.475004 154.128167 35.251991 150.333425 C 30.028978 146.538684 20.898816 137.408522 17.104075 132.185509 C 13.309333 126.962496 7.447409 115.457821 5.452395 109.317800 C 3.457382 103.177780 1.437500 90.424749 1.437500 83.968750 C 1.437500 77.512751 3.457382 64.759720 5.452395 58.619700 C 7.447409 52.479679 13.309333 40.975004 17.104075 35.751991 C 20.898816 30.528978 30.028978 21.398816 35.251991 17.604075 C 40.475004 13.809333 51.979679 7.947409 58.119700 5.952395 C 64.259720 3.957382 77.012751 1.937500 83.468750 1.937500 M 91.765625 127.421877 L 121.062500 98.125002 C 121.715478 97.472024 122.801060 95.977849 123.220297 95.155049 C 123.639535 94.332248 124.210259 92.575741 124.354719 91.663659 C 124.499178 90.751578 124.499178 88.904676 124.354719 87.992595 C 124.210259 87.080514 123.639535 85.324006 123.220297 84.501205 C 122.801060 83.678405 121.715478 82.184230 121.062500 81.531252 C 120.409522 80.878274 118.915347 79.792692 118.092547 79.373455 C 117.269746 78.954217 115.513239 78.383493 114.601157 78.239033 C 113.689076 78.094574 111.842174 78.094574 110.930093 78.239033 C 110.018011 78.383493 108.261504 78.954217 107.438703 79.373455 C 106.615903 79.792692 105.121728 80.878274 104.468750 81.531252 L 95.187500 90.835943 L 95.187500 48.812500 C 95.187500 47.890214 94.898945 46.068353 94.613944 45.191207 C 94.328942 44.314061 93.491524 42.670536 92.949418 41.924392 C 92.407312 41.178247 91.103003 39.873938 90.356858 39.331832 C 89.610714 38.789726 87.967189 37.952308 87.090043 37.667306 C 86.212897 37.382305 84.391036 37.093750 83.468750 37.093750 C 82.546464 37.093750 80.724603 37.382305 79.847457 37.667306 C 78.970311 37.952308 77.326786 38.789726 76.580642 39.331832 C 75.834497 39.873938 74.530188 41.178247 73.988082 41.924392 C 73.445976 42.670536 72.608558 44.314061 72.323556 45.191207 C 72.038555 46.068353 71.750000 47.890214 71.750000 48.812500 L 71.750000 89.054688 L 65.187500 81.906250 C 64.564035 81.226526 63.119792 80.078876 62.316795 79.625081 C 61.513798 79.171286 59.785598 78.526103 58.881672 78.342658 C 57.977746 78.159213 56.134758 78.079650 55.218386 78.184512 C 54.302013 78.289373 52.524641 78.783219 51.685523 79.166123 C 50.846406 79.549028 49.308631 80.567941 48.628906 81.191406 C 47.949182 81.814871 46.801533 83.259115 46.347738 84.062111 C 45.893943 84.865108 45.248759 86.593308 45.065314 87.497234 C 44.881869 88.401160 44.802306 90.244148 44.907168 91.160521 C 45.012030 92.076893 45.505876 93.854265 45.888780 94.693383 C 46.271684 95.532501 47.290598 97.070275 47.914063 97.750000 L 74.843751 127.046875 C 75.163332 127.395686 75.856647 128.039516 76.228126 128.332441 C 76.599604 128.625366 77.387366 129.149421 77.801086 129.378847 C 78.214807 129.608272 79.076542 129.998933 79.521753 130.158897 C 79.966964 130.318861 80.880276 130.565973 81.345405 130.652317 C 81.810535 130.738662 82.751687 130.835804 83.224647 130.846285 C 83.697606 130.856766 84.642138 130.801412 85.110636 130.735757 C 85.579134 130.670103 86.502496 130.463692 86.954356 130.323608 C 87.406216 130.183524 88.284411 129.831422 88.707889 129.620549 C 89.131367 129.409676 89.941571 128.921033 90.325661 128.644852 C 90.709751 128.368671 91.430907 127.756186 91.765626 127.421875 Z" transform="scale(1.000000,1.000000) translate(272.000000,84.000000)" fill="url(#105553153631296105553179475040)" opacity="1.000000"></path>
    </g>
</svg>