<?xml version="1.0" encoding="UTF-8" standalone="yes"?>
<!DOCTYPE svg PUBLIC "-//W3C//DTD SVG 1.1//EN" "http://www.w3.org/Graphics/SVG/1.1/DTD/svg11.dtd">

<svg width="400" height="400" viewBox="0 0 400 400" xmlns="http://www.w3.org/2000/svg" xmlns:xlink="http://www.w3.org/1999/xlink" version="1.1" baseProfile="full">
    <g transform="scale(1,-1) translate(0,-400)">
        <path d="M 188.993292 1.505718 C 174.574473 1.505718 160.173933 6.980445 149.166796 17.913028 L 135.479255 31.600583 C 130.171877 36.888272 123.065823 39.813384 115.528052 39.831677 L 96.270990 39.831677 C 65.144731 39.831677 39.812582 65.164799 39.812582 96.290501 L 39.812582 115.566674 C 39.793880 123.084784 36.868768 130.192233 31.562228 135.536170 L 18.099273 148.980440 C -3.951551 170.899063 -4.045351 206.731641 17.892967 228.802163 L 31.581072 242.507984 C 36.868768 247.815362 39.793880 254.921416 39.812582 262.459201 L 39.812582 281.697553 C 39.812582 312.842514 65.144731 338.174664 96.270990 338.174664 L 115.546332 338.174664 C 123.065823 338.174664 130.153597 341.099769 135.497548 346.443720 L 148.979759 359.887969 C 170.898395 381.938793 206.712707 382.051299 228.801495 360.094276 L 242.489023 346.406308 C 247.814694 341.099769 254.902455 338.174664 262.420565 338.174664 L 281.696738 338.174664 C 312.822440 338.174664 338.155562 312.842514 338.155562 281.697553 L 338.155562 262.440907 C 338.173855 254.921416 341.098967 247.815362 346.404950 242.471425 L 359.868881 229.007480 C 370.537094 218.395514 376.443566 204.256554 376.499814 189.162704 C 376.537795 174.161689 370.762113 160.042417 360.242955 149.374203 C 360.055918 149.185744 359.887174 148.980440 359.700137 148.811669 L 346.386656 135.498216 C 341.098967 130.192233 338.173855 123.084784 338.155562 115.546986 L 338.155562 96.290501 C 338.155562 65.164799 312.822440 39.831677 281.696738 39.831677 L 262.420565 39.831677 C 254.902455 39.813384 247.795006 36.888272 242.470757 31.582289 L 228.988533 18.118358 C 218.001097 7.056382 203.488035 1.505718 188.993292 1.505718 Z" transform="scale(1.000000,1.000000) translate(11.000000,11.000000)" fill="#2b2b2b" opacity="0.400000"></path>
        <path d="M 161.217757 98.783483 L 161.217757 168.990000 L 214.765100 133.886741 Z M 56.007143 142.216328 L 161.217757 142.216328 L 161.217757 125.755478 L 58.585348 125.755478 L 54.436040 125.554058 L 50.416898 124.949794 L 46.527906 123.942683 L 42.769050 122.532721 L 39.193021 120.778795 L 35.852516 118.739786 L 32.747520 116.415686 L 29.878022 113.806488 L 27.271921 110.936992 L 24.957117 107.831997 L 22.933603 104.491491 L 21.201370 100.915460 L 19.813101 97.156602 L 18.821484 93.267611 L 18.226516 89.248469 L 18.028194 85.099162 L 18.338072 80.079098 L 19.267715 75.133406 L 20.841907 70.311667 L 23.085443 65.663459 L 8.706989 57.730519 L 7.033631 60.981172 L 5.583392 64.287590 L 4.356269 67.649787 L 3.352255 71.067774 L 2.571354 74.529145 L 2.013569 78.021492 L 1.678900 81.544826 L 1.567344 85.099162 L 1.849333 90.912532 L 2.695303 96.552347 L 4.105258 102.018628 L 6.079203 107.311393 L 8.536558 112.350059 L 11.396748 117.054038 L 14.659784 121.423344 L 18.325679 125.457993 L 22.357230 129.123886 L 26.717238 132.386922 L 31.405722 135.247112 L 36.422698 137.704469 L 41.693774 139.678415 L 47.144561 141.088370 L 52.775079 141.934340 L 58.585348 142.216328 Z M 70.782243 71.315679 L 70.782243 1.010000 L 17.234900 36.212420 Z M 209.112881 104.435702 L 223.293011 112.368642 L 224.926084 109.245043 L 226.354630 106.022291 L 227.578654 102.700378 L 228.598164 99.279292 L 229.400759 95.777637 L 229.974037 92.214018 L 230.318002 88.588423 L 230.432656 84.900838 L 230.305606 81.021128 L 229.924454 77.215803 L 229.289200 73.484849 L 228.399841 69.828253 L 227.278073 66.267719 L 225.945591 62.824953 L 224.402388 59.499943 L 222.648459 56.292674 L 220.696208 53.212456 L 218.558037 50.268597 L 216.233938 47.461086 L 213.723902 44.789911 L 211.049630 42.279874 L 208.232822 39.955774 L 205.273468 37.817604 L 202.171558 35.865354 L 198.942598 34.111426 L 195.602093 32.568224 L 192.150030 31.235741 L 188.586399 30.113973 L 184.929804 29.224613 L 181.198849 28.589358 L 177.393523 28.208207 L 173.513813 28.081157 L 70.782243 28.081157 L 70.782243 44.542007 L 173.513813 44.542007 L 177.660019 44.740329 L 181.669865 45.335297 L 185.543365 46.326914 L 189.280531 47.715183 L 192.834869 49.444318 L 196.159881 51.458537 L 199.255580 53.757846 L 202.121978 56.342255 L 204.728077 59.190060 L 207.042881 62.279562 L 209.066397 65.610772 L 210.798630 69.183701 L 212.186899 72.936360 L 213.178516 76.806760 L 213.773484 80.794914 L 213.971806 84.900838 L 213.674321 90.069645 L 212.781865 95.064917 L 211.269651 99.861867 L 209.112881 104.435702 Z" transform="scale(1.000000,1.000000) translate(84.000000,115.000000)" fill="#89ff1b" opacity="1.000000"></path>
    </g>
</svg>